<svg width="1120" height="149" viewBox="0 0 1120 149" fill="none" xmlns="http://www.w3.org/2000/svg">
<path d="M0 0H70V114C70 133.33 54.33 149 35 149C15.67 149 0 133.33 0 114V0Z" fill="#007BFF"/>
<path d="M70 0H140V114C140 133.33 124.33 149 105 149C85.67 149 70 133.33 70 114V0Z" fill="#94BEFF"/>
<path d="M140 0H210V114C210 133.33 194.33 149 175 149C155.67 149 140 133.33 140 114V0Z" fill="#007BFF"/>
<path d="M210 0H280V114C280 133.33 264.33 149 245 149C225.67 149 210 133.33 210 114V0Z" fill="#94BEFF"/>
<path d="M280 0H350V114C350 133.33 334.33 149 315 149C295.67 149 280 133.33 280 114V0Z" fill="#007BFF"/>
<path d="M350 0H420V114C420 133.33 404.33 149 385 149C365.67 149 350 133.33 350 114V0Z" fill="#94BEFF"/>
<path d="M420 0H490V114C490 133.33 474.33 149 455 149C435.67 149 420 133.33 420 114V0Z" fill="#007BFF"/>
<path d="M490 0H560V114C560 133.33 544.33 149 525 149C505.67 149 490 133.33 490 114V0Z" fill="#94BEFF"/>
<path d="M560 0H630V114C630 133.33 614.33 149 595 149C575.67 149 560 133.33 560 114V0Z" fill="#007BFF"/>
<path d="M630 0H700V114C700 133.33 684.33 149 665 149C645.67 149 630 133.33 630 114V0Z" fill="#94BEFF"/>
<path d="M700 0H770V114C770 133.33 754.33 149 735 149C715.67 149 700 133.33 700 114V0Z" fill="#007BFF"/>
<path d="M770 0H840V114C840 133.33 824.33 149 805 149C785.67 149 770 133.33 770 114V0Z" fill="#94BEFF"/>
<path d="M840 0H910V114C910 133.33 894.33 149 875 149C855.67 149 840 133.33 840 114V0Z" fill="#007BFF"/>
<path d="M910 0H980V114C980 133.33 964.33 149 945 149C925.67 149 910 133.33 910 114V0Z" fill="#94BEFF"/>
<path d="M980 0H1050V114C1050 133.33 1034.33 149 1015 149C995.67 149 980 133.33 980 114V0Z" fill="#007BFF"/>
<path d="M1050 0H1120V114C1120 133.33 1104.33 149 1085 149C1065.67 149 1050 133.33 1050 114V0Z" fill="#94BEFF"/>
</svg>
